<svg xmlns="http://www.w3.org/2000/svg" xml:space="preserve" id="Layer_1" x="0" y="0" style="enable-background:new 0 0 512 512" version="1.1" viewBox="0 0 512 512"><style>.st0{fill:#8c96a1}</style><g id="XMLID_1_"><path id="XMLID_5_" d="M50.42 251.09.47 362.92h32.69l9.68-23.71h50.23l9.68 23.71h32.55L85.22 251.09h-34.8zm17.68 26.38 8.42 21.33 8.42 21.33H51.26l8.42-21.33 8.42-21.33z" class="st0"/><path id="XMLID_8_" d="m292.46 251.09-49.95 111.83h32.69l9.68-23.71h50.23l9.68 23.71h32.69L327.4 251.09h-34.94zm17.82 26.38 8.42 21.33 8.42 21.33h-33.68l8.42-21.33 8.42-21.33z" class="st0"/><path id="XMLID_9_" d="M386.05 250.67h37.04l23.71 35.78 25.12-35.78h36.62l-44.06 54.3 46.87 58.37h-37.04l-26.94-38.03-26.38 38.03h-39.57l47.71-57.81z" class="st0"/><path id="XMLID_10_" d="m229.18 203.38-44.34 43.64 15.29 13.89 14.45-14.59h1.68v83.35c0 10.52-8.56 19.08-19.08 19.08h-15.15c-10.52 0-19.08-8.56-19.08-19.08v-8.84h-29.47v11.08c0 19.08 15.43 34.52 34.52 34.52h39.29c19.08 0 34.52-15.43 34.52-34.52v-85.45h1.12l16.84 14.45 13.33-13.89-43.92-43.64z" class="st0"/><path id="XMLID_11_" d="M147.66 311.7 192 268.07l-15.29-13.89-14.45 14.59h-1.68v-83.35c0-10.52 8.56-19.08 19.08-19.08h15.15c10.52 0 19.08 8.56 19.08 19.08v8.84h29.47v-11.08c0-19.08-15.43-34.52-34.52-34.52h-39.29c-19.08 0-34.52 15.43-34.52 34.52v85.45h-1.12l-16.84-14.45-13.33 13.89 43.92 43.63z" class="st0"/><linearGradient id="XMLID_3_" x1="5.809" x2="7.173" y1="506.004" y2="506.004" gradientTransform="matrix(0 160.5822 160.5822 0 -80999.39 -788.702)" gradientUnits="userSpaceOnUse"><stop offset="0" style="stop-color:#70b0df"/><stop offset=".5" style="stop-color:#1b81c5"/><stop offset="1" style="stop-color:#4a98ce"/></linearGradient><path id="XMLID_19_" d="M169.97 145.85c-19.08 0-34.52 15.43-34.52 34.52v85.45h-1.12l-16.84-14.45-13.33 13.89 43.64 43.64 44.34-43.64-15.29-13.89-14.45 14.59h-1.54v-83.35c0-10.52 8.56-19.08 19.08-19.08h15.15c10.52 0 19.08 8.56 19.08 19.08v8.84h29.47v-11.08c0-19.08-15.43-34.52-34.52-34.52h-39.15zm59.21 54.87-44.34 43.64 15.29 13.89 14.45-14.59h1.68V327c0 10.52-8.56 19.08-19.08 19.08h-15.15c-10.52 0-19.08-8.56-19.08-19.08v-8.84h-29.47v11.08c0 19.08 15.43 34.52 34.52 34.52h39.29c19.08 0 34.52-15.43 34.52-34.52v-85.45h1.12l16.84 14.45 13.33-13.89-43.92-43.63zM386.05 248l43.08 54.72-47.85 57.81h39.57l26.38-38.02 26.94 38.02h37.18l-46.86-58.37L508.54 248h-36.48l-25.26 35.64L423.09 248h-37.04zm-335.63.42L.47 360.25h32.69l9.68-23.71h50.23l9.68 23.71h32.55L85.22 248.42h-34.8zm242.04 0-49.95 111.83h32.69l9.68-23.71h50.23l9.68 23.71h32.69L327.4 248.42h-34.94zM68.1 274.8l8.42 21.33 8.42 21.33H51.26l8.42-21.33 8.42-21.33zm242.18 0 8.42 21.33 8.42 21.33h-33.68l8.42-21.33 8.42-21.33z" style="fill:url(#XMLID_3_)"/><path id="XMLID_27_" d="M169.97 145.85v-.28c-9.68 0-18.38 3.93-24.69 10.24-6.31 6.31-10.24 15.01-10.24 24.69v85.17h-.7l-16.98-14.59-13.76 14.32 44.2 44.2 44.9-44.2-15.86-14.31-14.59 14.73h-1.12v-83.06c0-10.38 8.42-18.8 18.8-18.8h15.15c10.38 0 18.8 8.42 18.8 18.8v9.26h30.17v-11.37c0-9.68-3.93-18.38-10.24-24.69s-15.01-10.24-24.69-10.24h-39.29V146.14h39.29c18.94 0 34.24 15.29 34.24 34.24v10.8h-28.9v-8.56c0-5.33-2.1-10.24-5.75-13.75-3.51-3.51-8.42-5.75-13.75-5.75h-15.15c-5.33 0-10.24 2.1-13.75 5.75-3.51 3.51-5.75 8.42-5.75 13.75v83.77h2.1l14.31-14.45 14.73 13.33-43.92 43.22-43.22-43.22 12.77-13.33 16.7 14.31h1.54v-85.87c0-18.94 15.29-34.24 34.24-34.24v-.28h.41zm59.21 54.87-.28-.28-44.62 43.92 15.86 14.31 14.59-14.73h1.12V327c0 10.38-8.42 18.8-18.8 18.8H181.9c-10.38 0-18.8-8.42-18.8-18.8v-9.26h-30.17v11.37c0 9.68 3.93 18.38 10.24 24.69s15.01 10.24 24.69 10.24h39.29c9.68 0 18.38-3.93 24.69-10.24s10.24-15.01 10.24-24.69v-85.17h.7l16.98 14.59 13.75-14.31-44.2-44.2-.28.28.15.42-.28.28 43.36 43.36-12.77 13.33-16.7-14.31h-1.54v85.87c0 18.94-15.29 34.24-34.24 34.24h-39.29c-18.94 0-34.24-15.29-34.24-34.24v-10.8h28.9V327c0 5.33 2.1 10.24 5.75 13.75 3.51 3.51 8.42 5.75 13.75 5.75h15.15c5.33 0 10.24-2.1 13.75-5.75 3.51-3.51 5.75-8.42 5.75-13.75v-83.77h-2.1l-14.31 14.45-14.73-13.33L229.6 201l-.42-.28-.28.28.28-.28zM386.05 248l-.28.28 42.94 54.58-48.13 58.23h40.41l26.24-37.88 26.8 37.88h38.02L464.9 302.3l44.34-54.58h-37.46l-24.98 35.36-23.57-35.36h-38.02l.42.56.42-.28v.28h36.9l23.85 35.92 25.26-35.92h35.64l-43.78 53.88 46.58 58.09h-36.2l-26.94-38.31-26.52 38.31h-38.73l47.43-57.53-43.36-55-.13.28v.28-.28zm-335.63.42-.28-.14L.05 360.53h33.39l9.68-23.71H92.8l9.68 23.71h33.39L85.5 248H50.14l-.14.14.42.28v.28h34.66l49.81 111.13h-31.85l-9.68-23.71h-50.8l-9.68 23.71H.89l49.67-111.41h-.14v.28-.28zm242.04 0-.28-.14-50.09 112.25h33.39l9.68-23.71h49.67l9.68 23.71h33.53L327.68 248h-35.36l-.14.14.28.28v.28h34.66l49.81 111.13h-31.85l-9.68-23.71h-50.65l-9.68 23.71h-31.85l49.67-111.41h-.43v.28-.28zM68.1 274.8l-.28.14 8.42 21.33 8.28 20.77H51.68l8.28-20.91 8.42-21.33h-.28l-.28.14.28-.14-.28-.14-8.42 21.33-8.56 21.75h34.8l-8.7-21.75-8.84-22.03-.28.84h.28zm242.18 0-.28.14 8.42 21.33 8.28 20.77h-32.84l8.28-20.91 8.42-21.33h-.28l-.28.14.28-.14-.28-.14-8.42 21.33-8.56 21.75h34.8l-8.7-21.75-8.84-22.03-.28.84h.28z" style="fill:#0c4c75"/></g></svg>