<svg xmlns="http://www.w3.org/2000/svg" xml:space="preserve" id="layer" x="0" y="0" style="enable-background:new 0 0 652 652" version="1.1" viewBox="0 0 652 652"><style>.st0{fill:#222}</style><path d="M299.1 392.6h35.8V249.9h-35.8zM423.7 362.6c22.7 0 39.4-19.5 39.4-41.4S446.3 280 423.7 280c-22.7 0-39.5 19.3-39.5 41.2 0 21.9 16.8 41.4 39.5 41.4m.3-117.3c42.9 0 77.4 32.9 77.4 75.6 0 42.9-34.8 76.5-77.8 76.5s-77.8-33.1-77.8-75.9c0-42.7 35.3-76.2 78.2-76.2m81.5 104.2 32.8-7.7c2.4 17.2 15 23.4 28.2 23.4s18-7.7 18-13.7c0-4.8-2.8-9.6-12.4-11.5l-20-3.9c-23.9-4.6-40.9-19.5-40.9-42.4 0-27.3 25.1-46.5 53.5-46.5 36.6 0 51.6 22.6 54.2 41.6l-32.2 9c-1.7-11.7-9-20.1-22.2-20.1-11.4 0-16.9 7.5-16.9 13.3 0 4.8 2.3 10.2 10.8 11.9l20.9 4c27.3 5.2 42.3 21.7 42.3 43.2 0 23.4-20.3 45.8-55.1 45.8-36.6-.3-56.2-19.2-61-46.4" class="st0"/><path d="M60 392.6H21.5l63.7-142.7h38.7z" style="fill:#0a99e0"/><path d="m242.4 319.6 47.8-69.8h-43.7l-25.8 42.3-25.2-42.3h-44.4l48.5 69.8-27 39.2L124 249.9H85.3l63.9 142.7h41.3l30.2-45.2 29.8 45.2h41.8z" class="st0"/></svg>