<svg xmlns="http://www.w3.org/2000/svg" xml:space="preserve" id="Layer_1" x="0" y="0" style="enable-background:new 0 0 264 186" version="1.0" viewBox="0 0 264 186"><style>.st0{fill:#ffa056}.st1{fill:#3d4752}</style><g id="Layer_1-2"><path d="M73 101.1c0-1.5-1.2-2.7-2.7-2.7-1.5 0-2.7 1.2-2.7 2.7 0 1.5 1.2 2.7 2.7 2.7 1.5 0 2.7-1.2 2.7-2.7zM70.3 88.3c-1.5 0-2.7-1.2-2.7-2.7 0-1.5 1.2-2.7 2.7-2.7 1.5 0 2.7 1.2 2.7 2.7 0 1.4-1.2 2.7-2.7 2.7zM65.3 101.1c0 1.5-1.2 2.8-2.7 2.8s-2.8-1.2-2.8-2.7c0-2.8-2.3-5-5-5-1.5 0-2.8-1.2-2.8-2.7 0-1.5 1.2-2.8 2.7-2.8 2.8 0 5-2.3 5-5 0-1.5 1.2-2.7 2.7-2.7s2.7 1.2 2.7 2.7c0 1.5-1.2 2.7-2.7 2.7-2.8 0-5 2.3-5 5.1s2.2 5 5 5c1.6-.2 2.9 1.1 2.9 2.6z" class="st0"/><path d="M82.3 83.5h4.6v16.7h8.3v3.6H82.3V83.5zM96.2 98.5V89h4.1v9c0 2 .8 3 2.6 3 1.6.1 3-1.2 3.1-2.8V89h4.1v14.9H106v-2.3c-.9 1.7-2.8 2.8-4.7 2.6-3-.1-5.1-1.8-5.1-5.7zM111.5 96.6v-.2c-.2-4.1 2.9-7.5 7-7.7h.7c3.4 0 6.6 1.5 7 5.8h-3.9c-.1-1.5-1.4-2.6-2.9-2.5h-.1c-2.1 0-3.6 1.6-3.6 4.4v.2c0 3 1.3 4.5 3.6 4.5 1.7.1 3.1-1.2 3.2-2.8h3.7c-.2 3.5-2.8 6-7.1 6-4.3-.2-7.6-2.9-7.6-7.7zM127.4 84.7c-.1-1.3.9-2.4 2.2-2.4s2.4.9 2.4 2.2c.1 1.3-.9 2.4-2.2 2.4h-.1c-1.2.1-2.2-.9-2.3-2.2 0 .1 0 .1 0 0zm.4 4.3h4.1v14.9h-4.1V89zM133.4 96.6v-.2c0-4.9 2.8-7.8 6.5-7.8 1.9-.1 3.8.9 4.7 2.6v-8.9h4.1v21.6h-4.1v-2.5c-1 1.7-2.8 2.8-4.8 2.8-3.5-.1-6.4-2.7-6.4-7.6zm11.4-.1v-.2c0-3-1.3-4.5-3.6-4.5s-3.6 1.6-3.6 4.5v.2c0 3 1.4 4.4 3.5 4.4s3.7-1.4 3.7-4.4zM150.4 96.5v-.2c0-4.5 3.2-7.6 7.2-7.6 3.1 0 6 1.4 6.4 5.2h-2.3c-.4-2.4-2.1-3.2-4.1-3.2-2.7 0-4.8 2.2-4.8 5.7v.2c0 3.6 2 5.6 4.9 5.6 2.2.1 4.1-1.5 4.3-3.6h2.2c-.3 3.3-3.2 5.8-6.5 5.6-4.1-.1-7.3-3.1-7.3-7.7zM166.3 81.9h2.4v9.5c1-1.7 2.8-2.7 4.8-2.6 3.1 0 5.2 1.7 5.2 6v9.1h-2.4v-9.3c0-2.6-1.1-3.8-3.5-3.8-2.2-.1-4 1.5-4.1 3.7v9.4h-2.4v-22zM180.7 99.7c0-3.4 3.6-4.6 7.4-4.6h2.1V94c0-2.4-.9-3.4-3.2-3.4-2 0-3.2.9-3.4 2.7h-2.4c.3-3.4 3-4.6 5.9-4.6 2.8 0 5.4 1.2 5.4 5.3v9.8h-2.4v-1.9a5.46 5.46 0 0 1-4.6 2.1c-2.7.1-4.8-1.3-4.8-4.3zm9.5-1.1v-1.8h-2c-3 0-5.2.7-5.2 2.9 0 1.5.7 2.5 2.8 2.5 2.5 0 4.4-1.3 4.4-3.6zM195.6 89h2.4v2.7c.9-1.9 2.8-3 4.9-2.9V91c-3 .1-4.9 1.1-4.9 4.7v8.2h-2.4V89zM206 100.1V91h-2.1v-2h2.1v-3.4h2.4V89h3.5v2h-3.5v8.9c0 1.4.7 2.2 1.8 2.2.6 0 1.2-.1 1.8-.3v2c-.6.2-1.3.3-2 .3-2.7-.1-4-1.7-4-4z" class="st1"/></g></svg>