<svg xmlns="http://www.w3.org/2000/svg" xml:space="preserve" width="800" height="800" viewBox="0 0 512 512"><path d="M509.572 205.903c-6.315-6.315-38.835-37.816-58.945-37.816-10.931 0-24.445 5.193-37.518 10.216-9.122 3.504-19.463 7.478-24.409 7.478h-43.16c-6.252-1.601-36.961-8.847-80.694-8.847-36.425 0-71.318 23.539-105.064 46.302-27.117 18.293-55.159 37.208-82.251 42.308-58.855 11.078-74.057 27.527-75.597 29.366a8.296 8.296 0 0 0-1.156 8.833 8.298 8.298 0 0 0 7.515 4.784H94.26a86.844 86.844 0 0 0 56.486-20.896l31.814-27.268 1.422 2.845-22.313 22.313a8.293 8.293 0 0 0-2.428 5.864v34.13c0 10.144 8.253 18.397 18.397 18.397h7.59a8.294 8.294 0 0 0 8.294-8.294 8.294 8.294 0 0 0-8.294-8.294h-7.59a1.812 1.812 0 0 1-1.809-1.809v-18.29c10.345-2.279 29.835-8.474 50.063-24.877l-4.59 25.246a8.292 8.292 0 0 0 1.26 6.084l14.031 21.045a20.587 20.587 0 0 0 17.166 9.188h5.561a8.294 8.294 0 0 0 8.294-8.294 8.294 8.294 0 0 0-8.294-8.294h-5.561a4.032 4.032 0 0 1-3.364-1.8l-5.687-8.53 30.643-37.112c22.101-.922 43.426-2.5 59.094-4.808-2.511 11.545-6.511 22.045-6.563 22.18a8.305 8.305 0 0 0-.553 2.977v27.074c0 9.156 7.449 16.606 16.606 16.606h9.381a8.294 8.294 0 0 0 8.294-8.294 8.294 8.294 0 0 0-8.294-8.294l-9.4-.019v-23.486a5872.657 5872.657 0 0 1 29.411-26.182l27.885 30.115 4.093 20.465c1.817 9.093 9.867 15.693 19.141 15.693h8.491a8.294 8.294 0 0 0 8.294-8.294 8.294 8.294 0 0 0-8.294-8.294h-8.491a2.94 2.94 0 0 1-2.875-2.358l-15.204-76.018c2.154-1.791 3.858-3.164 4.95-3.967 8.916-6.569 31.198-16.074 48.159-16.074h26.54c1.287 0 2.558-.3 3.709-.876l17.693-8.847a8.297 8.297 0 0 0 4.478-6.09 8.3 8.3 0 0 0-2.324-7.187zm-269.377 90.503 2.842-15.634c3.374-.046 6.785-.107 10.218-.184l-13.06 15.818zm145.584-29.728c2.113-1.851 4.168-3.645 6.142-5.362l3.06 15.299-9.202-9.937zm98.277-54.358h-24.583c-19.638 0-45.397 10.023-58 19.31-6.725 4.954-31.776 27.022-50.08 43.289.583-3.105 1.053-6.252 1.333-9.322a8.291 8.291 0 0 0-10.086-8.841c-19.781 4.466-61.75 6.834-98.148 7.4a156.946 156.946 0 0 0 9.467-12.263 8.295 8.295 0 0 0-2.065-11.546 8.292 8.292 0 0 0-11.546 2.065c-13.186 18.93-29.54 33.016-48.608 41.869a103.02 103.02 0 0 1-9.072 3.699l17.271-17.27a8.293 8.293 0 0 0 1.553-9.573l-8.847-17.693a8.288 8.288 0 0 0-5.777-4.421 8.29 8.29 0 0 0-7.039 1.832l-39.879 34.181a70.243 70.243 0 0 1-45.69 16.904H41.443c9.636-3.387 22.412-6.943 39.159-10.095 30.458-5.734 59.943-25.623 88.458-44.858 33.136-22.353 64.435-43.466 95.787-43.466 45.715 0 77.11 8.464 77.415 8.548.718.198 1.46.299 2.205.299H388.7c8.024 0 18.373-3.977 30.358-8.581a668.044 668.044 0 0 1 8.08-3.063c.932 6.595 5.4 12.179 12.179 15.11a8.284 8.284 0 0 0 3.288.683 8.297 8.297 0 0 0 7.617-5.004 8.294 8.294 0 0 0-4.32-10.905c-1.034-.447-2.282-1.217-2.354-2.348-.056-.864.483-2.133 1.758-3.027 1.932-.354 3.729-.561 5.322-.561 7.316 0 24.178 11.856 38.775 24.973l-5.347 2.675z"/></svg>